<svg xmlns="http://www.w3.org/2000/svg" xmlns:xlink="http://www.w3.org/1999/xlink" version="1.1" 
x="0px" y="0px" viewBox="0 0 50 46" enable-background="new 0 0 50 46" xml:space="preserve">
<g>
<path fill="white" d="M30.66,8.7237v-0.78c0.27-0.17,0.45-0.47,0.45-0.82c0-0.53-0.43-0.96-0.96-0.97c-2.9-2.21-7.4-2.21-10.29,0   c-0.53,0.01-0.96,0.44-0.96,0.97c0,0.35,0.18,0.66,0.46,0.83v0.77h1v-0.75c0.24-0.15,0.42-0.4,0.46-0.69   c2.37-1.77,6-1.77,8.37-0.01c0.04,0.3,0.22,0.5601,0.47,0.7v0.75H30.66z"/>
<path fill="white" d="M4,26.8838c-0.78,0-1.51-0.2-2.15-0.55v16.17c0,1.66,1.34,3,3,3h40.31c1.66,0,3-1.34,3-3v-16.17   c-0.64,0.35-1.38,0.55-2.16,0.55H31.16v2.89c0,1.38-1.13,2.5-2.5,2.5h-7.3c-1.38,0-2.5-1.12-2.5-2.5v-2.89H4z"/>
<path fill="white" d="M4,25.3838h14.86v-0.66c0-1.38,1.12-2.5,2.5-2.5h7.3c1.37,0,2.5,1.12,2.5,2.5v0.66H46c1.66,0,3-1.34,3-3v-9.66   c0-1.66-1.34-3-3-3H4c-1.65,0-3,1.34-3,3v9.66C1,24.0437,2.35,25.3838,4,25.3838z"/>
<path fill="white" d="M28.6553,30.7715c0.5523,0,1-0.4477,1-1v-5.0479c0-0.5523-0.4477-1-1-1h-7.2919c-0.5523,0-1,0.4477-1,1v5.0479   c0,0.5523,0.4477,1,1,1H28.6553z M27.4813,27.0111c0.4833,0,0.875,0.3917,0.875,0.875s-0.3917,0.875-0.875,0.875   c-0.4832,0-0.875-0.3917-0.875-0.875S26.998,27.0111,27.4813,27.0111z M22.5374,27.0111c0.4833,0,0.8751,0.3917,0.8751,0.875   s-0.3918,0.875-0.8751,0.875c-0.4832,0-0.8749-0.3917-0.8749-0.875S22.0541,27.0111,22.5374,27.0111z"/></g></svg>