<svg xmlns="http://www.w3.org/2000/svg" xmlns:xlink="http://www.w3.org/1999/xlink" xml:space="preserve" version="1.1" style="shape-rendering:geometricPrecision;text-rendering:geometricPrecision;image-rendering:optimizeQuality;" viewBox="0 0 191 333.75" x="0px" y="0px" fill-rule="evenodd" clip-rule="evenodd"><defs><style type="text/css">
   
    .fil1 {fill:black}
    .fil0 {fill:black;fill-rule:nonzero}
   
  </style></defs><g><polygon class="fil0" points="121,0 191,70 121,70 "/><path class="fil1" d="M0 0l113 0 0 70c0,4 3,8 8,8l70 0 0 189 -191 0 0 -267zm58 27c10,0 17,7 17,17 0,6 -3,12 -8,15 13,4 21,16 21,29l-60 0c0,-13 8,-25 21,-29 -5,-3 -8,-9 -8,-15 0,-10 7,-17 17,-17zm-23 102l121 0 0 10 -121 0 0 -10zm0 34l121 0 0 9 -121 0 0 -9zm0 33l121 0 0 10 -121 0 0 -10z"/></g><text x="0" y="282" fill="#000000" font-size="5px" font-weight="bold" font-family="'Helvetica Neue', Helvetica, Arial-Unicode, Arial, Sans-serif">Created by Iga</text><text x="0" y="287" fill="#000000" font-size="5px" font-weight="bold" font-family="'Helvetica Neue', Helvetica, Arial-Unicode, Arial, Sans-serif">from the Noun Project</text></svg>