<svg xmlns="http://www.w3.org/2000/svg" xmlns:xlink="http://www.w3.org/1999/xlink" version="1.1" x="0px" y="0px" viewBox="0 0 90 112.5" enable-background="new 0 0 90 90" xml:space="preserve"><path d="M41,61.9c-0.6-0.3-1.4-0.2-1.9,0.2l-7.4,5.8c-0.4,0.3-0.7,0.9-0.7,1.4c0,0.6,0.3,1.1,0.7,1.4l7.4,5.8  c0.3,0.3,0.7,0.4,1.1,0.4c0.3,0,0.5-0.1,0.8-0.2c0.6-0.3,1-0.9,1-1.6V63.5C42,62.8,41.6,62.2,41,61.9z"/><path d="M69,61.7H47.7c-1,0-1.8,0.8-1.8,1.8v12.2c0,1,0.8,1.8,1.8,1.8H69c4.3,0,7.8-3.5,7.8-7.8v-0.2C76.8,65.2,73.3,61.7,69,61.7z"/><path d="M68,11.4H21.9c-2.6,0-5,1-6.8,2.9c-1.7,1.8-2.7,4.1-2.7,6.6v54.8c0,0.7,0.4,1.3,1.1,1.6c0.2,0.1,0.5,0.2,0.7,0.2  c0.4,0,0.9-0.2,1.2-0.4L38,57.1h30c5.2,0,9.4-4.2,9.4-9.4V20.8C77.4,15.6,73.2,11.4,68,11.4z M53.8,40.1H28.2c-1,0-1.8-0.8-1.8-1.8  c0-1,0.8-1.8,1.8-1.8h25.6c1,0,1.8,0.8,1.8,1.8C55.6,39.2,54.8,40.1,53.8,40.1z M65.1,30H28.2c-1,0-1.8-0.8-1.8-1.8  c0-1,0.8-1.8,1.8-1.8h36.9c1,0,1.8,0.8,1.8,1.8C66.9,29.2,66.1,30,65.1,30z"/><text x="0" y="105" fill="#000000" font-size="5px" font-weight="bold" font-family="'Helvetica Neue', Helvetica, Arial-Unicode, Arial, Sans-serif">Created by Sergey Novosyolov</text><text x="0" y="110" fill="#000000" font-size="5px" font-weight="bold" font-family="'Helvetica Neue', Helvetica, Arial-Unicode, Arial, Sans-serif">from the Noun Project</text></svg>