<svg xmlns="http://www.w3.org/2000/svg" xmlns:xlink="http://www.w3.org/1999/xlink" version="1.1" x="0px" y="0px" viewBox="0 0 100 125" style="enable-background:new 0 0 100 100;" xml:space="preserve"><path d="M87.1532593,42.7584076H83.163559c-0.3324127,0-0.62323-0.2493401-0.7064285-0.5922127  c-0.8104172-3.3662262-2.1403198-6.57658-3.9480972-9.5376549c-0.1973419-0.3324776-0.1661453-0.7272873,0.0935974-0.9870281  l2.7947388-2.7947426c1.1013641-1.1013603,1.1013641-2.9091434,0-4.0208378l-6.2233658-6.2233677  c-1.1117554-1.1012955-2.9195404-1.1116962-4.0207748,0l-2.8052063,2.8052082  c-0.2493362,0.2493401-0.6544876,0.2805405-0.9766235,0.0831337c-2.9610138-1.8077812-6.1713676-3.137682-9.5376549-3.9480381  c-0.3428116-0.0831356-0.5922165-0.3740749-0.5922165-0.7065506v-3.9895744C57.2415276,11.2779016,55.9636269,10,54.394783,10  h-8.789566c-1.5688438,0-2.8467445,1.2779016-2.8467445,2.8467426v3.9895744c0,0.3324757-0.239006,0.623415-0.5922165,0.7065506  c-3.3766212,0.8103561-6.5870399,2.1402569-9.5376549,3.9480381c-0.3324738,0.1974068-0.7272854,0.1662064-0.9870243-0.0935345  l-2.7948074-2.7948074c-1.1012974-1.1012955-2.9090786-1.1012955-4.0207748,0l-6.2233658,6.2233677  c-1.1013603,1.1116943-1.1013603,2.9194775,0,4.0208378l2.7947426,2.7947426  c0.2597408,0.2597408,0.2909412,0.6545506,0.0935345,0.9870281c-1.8077812,2.9610748-3.137682,6.1714287-3.9480381,9.5376549  c-0.0831356,0.3428726-0.374012,0.5922127-0.7064857,0.5922127h-3.9896393C11.2779016,42.7584076,10,44.0363731,10,45.6051521  v8.7896309c0,1.5688438,1.2779016,2.8467445,2.8467426,2.8467445h3.9584389c0.3532753,0,0.6649513,0.2597389,0.7584858,0.6337509  c0.8415546,3.4909592,2.2337284,6.7948494,4.1350441,9.8285942c0.0415363,0.0727386,0.0934715,0.1454697,0.1350708,0.2182083  l-3.2311535,3.2311478c-1.1013603,1.1012955-1.1013603,2.9090805,0,4.0207748l6.2233658,6.2233658  c1.1116962,1.1012955,2.9090786,1.1012955,4.0207748,0l2.7948074-2.7948074  c0.2493401-0.2493362,0.6545506-0.2908707,0.9766254-0.0934677c2.9506149,1.7973785,6.1610298,3.1272812,9.5480537,3.9376373  c0.3532104,0.0831375,0.5922165,0.3740158,0.5922165,0.7064896v4.0000381C42.7584724,88.7220383,44.0363731,90,45.605217,90  h8.789566c1.5688438,0,2.8467445-1.2779617,2.8467445-2.8467407V83.16362c0-0.3324738,0.2494049-0.6233521,0.5922165-0.7064896  c3.3662872-0.8104172,6.5766411-2.1402512,9.5376549-3.9480362c0.3324738-0.197403,0.7272873-0.1662674,0.9870224,0.0934677  l2.7948074,2.7948074c1.1012344,1.1012955,2.9090195,1.1012955,4.0207748,0l6.2233658-6.2233658  c1.1013641-1.1116943,1.1013641-2.9194794,0-4.0207748l-2.7947388-2.7948074  c-0.2597427-0.2597351-0.2909393-0.6545486-0.0935974-0.9870224c1.8077774-2.9610138,3.1376801-6.1714325,3.9480972-9.5376549  c0.0831985-0.3428764,0.3740158-0.5922165,0.7064285-0.5922165h3.9897003C88.7220993,57.2415276,90,55.9636269,90,54.394783  v-8.7896309C90,44.0363731,88.7220993,42.7584076,87.1532593,42.7584076z M61.3973732,45.5740166l-8.0519485,8.0519485  l-6.9817886-6.9714508l8.0519485-8.0519485c-3.7818336-1.246769-8.1142845-0.3636131-11.1272964,2.6493378  c-3.0025482,3.0130119-3.8961029,7.3454628-2.6493378,11.1272926l-8.5194931,8.5194931  c-5.0701351-8.2805519-3.8233681-18.815567,3.064949-25.7038841C39.2675133,31.1012955,44.6389885,29.064909,50,29.064909  s10.722084,2.0363865,14.805191,6.1298962c3.9584427,3.94804,6.1401749,9.21558,6.1401749,14.8051949  s-2.1817322,10.8571548-6.1401749,14.8155975c-6.7947769,6.7947769-17.2467232,8.1038818-25.4857407,3.1999512l8.5610924-8.5610275  c3.7194328,1.1012955,7.9272766,0.1870041,10.8674927-2.7428741C61.7506485,53.6987,62.6441383,49.3558502,61.3973732,45.5740166z"/><text x="0" y="115" fill="#000000" font-size="5px" font-weight="bold" font-family="'Helvetica Neue', Helvetica, Arial-Unicode, Arial, Sans-serif">Created by Graphic Enginer</text><text x="0" y="120" fill="#000000" font-size="5px" font-weight="bold" font-family="'Helvetica Neue', Helvetica, Arial-Unicode, Arial, Sans-serif">from the Noun Project</text></svg>